<mxfile host="Electron" agent="Mozilla/5.0 (Windows NT 10.0; Win64; x64) AppleWebKit/537.36 (KHTML, like Gecko) draw.io/24.7.5 Chrome/126.0.6478.183 Electron/31.3.0 Safari/537.36" version="24.7.5">
  <diagram name="Page-1" id="xUEvGOyZRvgsFoL2sh-P">
    <mxGraphModel dx="1923" dy="1150" grid="1" gridSize="10" guides="1" tooltips="1" connect="1" arrows="1" fold="0" page="1" pageScale="1" pageWidth="1220" pageHeight="960" math="0" shadow="0">
      <root>
        <mxCell id="0" />
        <mxCell id="1" parent="0" />
        <mxCell id="xHrQQ2MKgyLzjJ9SZpF5-7" value="" style="edgeStyle=orthogonalEdgeStyle;rounded=0;orthogonalLoop=1;jettySize=auto;html=1;endArrow=none;endFill=0;fillColor=#f8cecc;strokeColor=#b85450;" parent="1" source="xHrQQ2MKgyLzjJ9SZpF5-3" target="xHrQQ2MKgyLzjJ9SZpF5-4" edge="1">
          <mxGeometry relative="1" as="geometry" />
        </mxCell>
        <mxCell id="xHrQQ2MKgyLzjJ9SZpF5-3" value="Battery Managment System" style="rounded=0;whiteSpace=wrap;html=1;" parent="1" vertex="1">
          <mxGeometry x="60" y="80" width="120" height="40" as="geometry" />
        </mxCell>
        <mxCell id="xHrQQ2MKgyLzjJ9SZpF5-8" value="" style="edgeStyle=orthogonalEdgeStyle;rounded=0;orthogonalLoop=1;jettySize=auto;html=1;endArrow=none;endFill=0;fillColor=#f8cecc;strokeColor=#b85450;" parent="1" source="xHrQQ2MKgyLzjJ9SZpF5-4" target="xHrQQ2MKgyLzjJ9SZpF5-6" edge="1">
          <mxGeometry relative="1" as="geometry">
            <Array as="points">
              <mxPoint x="390" y="110" />
              <mxPoint x="390" y="110" />
            </Array>
          </mxGeometry>
        </mxCell>
        <mxCell id="xHrQQ2MKgyLzjJ9SZpF5-4" value="Power Conditioning" style="rounded=0;whiteSpace=wrap;html=1;" parent="1" vertex="1">
          <mxGeometry x="220" y="80" width="120" height="40" as="geometry" />
        </mxCell>
        <mxCell id="xHrQQ2MKgyLzjJ9SZpF5-6" value="OUTPUT" style="rounded=0;whiteSpace=wrap;html=1;" parent="1" vertex="1">
          <mxGeometry x="380" y="80" width="120" height="40" as="geometry" />
        </mxCell>
        <mxCell id="xHrQQ2MKgyLzjJ9SZpF5-10" value="" style="edgeStyle=orthogonalEdgeStyle;rounded=0;orthogonalLoop=1;jettySize=auto;html=1;exitX=0;exitY=0.25;exitDx=0;exitDy=0;entryX=1;entryY=0.75;entryDx=0;entryDy=0;endArrow=none;endFill=0;fillColor=#e1d5e7;strokeColor=#9673a6;" parent="1" source="xHrQQ2MKgyLzjJ9SZpF5-9" target="xHrQQ2MKgyLzjJ9SZpF5-3" edge="1">
          <mxGeometry relative="1" as="geometry" />
        </mxCell>
        <mxCell id="xHrQQ2MKgyLzjJ9SZpF5-13" value="" style="edgeStyle=orthogonalEdgeStyle;rounded=0;orthogonalLoop=1;jettySize=auto;html=1;exitX=0.5;exitY=0;exitDx=0;exitDy=0;entryX=0.5;entryY=1;entryDx=0;entryDy=0;startArrow=none;startFill=0;endArrow=none;endFill=0;fillColor=#f8cecc;strokeColor=#b85450;" parent="1" source="xHrQQ2MKgyLzjJ9SZpF5-9" target="xHrQQ2MKgyLzjJ9SZpF5-4" edge="1">
          <mxGeometry relative="1" as="geometry" />
        </mxCell>
        <mxCell id="xHrQQ2MKgyLzjJ9SZpF5-15" value="" style="edgeStyle=orthogonalEdgeStyle;rounded=0;orthogonalLoop=1;jettySize=auto;html=1;exitX=1;exitY=0.5;exitDx=0;exitDy=0;endArrow=none;endFill=0;fillColor=#e1d5e7;strokeColor=#9673a6;entryX=0.25;entryY=1;entryDx=0;entryDy=0;" parent="1" source="xHrQQ2MKgyLzjJ9SZpF5-9" target="xHrQQ2MKgyLzjJ9SZpF5-6" edge="1">
          <mxGeometry relative="1" as="geometry">
            <mxPoint x="410" y="130" as="targetPoint" />
          </mxGeometry>
        </mxCell>
        <mxCell id="xHrQQ2MKgyLzjJ9SZpF5-9" value="Power Managment" style="rounded=0;whiteSpace=wrap;html=1;" parent="1" vertex="1">
          <mxGeometry x="220" y="140" width="120" height="40" as="geometry" />
        </mxCell>
        <mxCell id="xHrQQ2MKgyLzjJ9SZpF5-14" value="" style="edgeStyle=orthogonalEdgeStyle;rounded=0;orthogonalLoop=1;jettySize=auto;html=1;endArrow=none;endFill=0;fillColor=#f8cecc;strokeColor=#b85450;" parent="1" source="xHrQQ2MKgyLzjJ9SZpF5-12" target="xHrQQ2MKgyLzjJ9SZpF5-9" edge="1">
          <mxGeometry relative="1" as="geometry" />
        </mxCell>
        <mxCell id="xHrQQ2MKgyLzjJ9SZpF5-16" value="" style="edgeStyle=orthogonalEdgeStyle;rounded=0;orthogonalLoop=1;jettySize=auto;html=1;exitX=0.5;exitY=1;exitDx=0;exitDy=0;entryX=0.75;entryY=1;entryDx=0;entryDy=0;endArrow=none;endFill=0;fillColor=#dae8fc;strokeColor=#6c8ebf;" parent="1" source="xHrQQ2MKgyLzjJ9SZpF5-12" target="xHrQQ2MKgyLzjJ9SZpF5-6" edge="1">
          <mxGeometry relative="1" as="geometry" />
        </mxCell>
        <mxCell id="xHrQQ2MKgyLzjJ9SZpF5-12" value="USBC PD Trigger" style="rounded=0;whiteSpace=wrap;html=1;" parent="1" vertex="1">
          <mxGeometry x="60" y="140" width="120" height="40" as="geometry" />
        </mxCell>
        <mxCell id="xHrQQ2MKgyLzjJ9SZpF5-17" value="Colour Code" style="swimlane;fontStyle=0;childLayout=stackLayout;horizontal=1;startSize=30;horizontalStack=0;resizeParent=1;resizeParentMax=0;resizeLast=0;collapsible=1;marginBottom=0;whiteSpace=wrap;html=1;" parent="1" vertex="1">
          <mxGeometry x="520" y="80" width="140" height="120" as="geometry" />
        </mxCell>
        <mxCell id="xHrQQ2MKgyLzjJ9SZpF5-18" value="Power" style="text;strokeColor=#b85450;fillColor=#f8cecc;align=left;verticalAlign=middle;spacingLeft=4;spacingRight=4;overflow=hidden;points=[[0,0.5],[1,0.5]];portConstraint=eastwest;rotatable=0;whiteSpace=wrap;html=1;" parent="xHrQQ2MKgyLzjJ9SZpF5-17" vertex="1">
          <mxGeometry y="30" width="140" height="30" as="geometry" />
        </mxCell>
        <mxCell id="xHrQQ2MKgyLzjJ9SZpF5-19" value="Data + Power" style="text;strokeColor=#9673a6;fillColor=#e1d5e7;align=left;verticalAlign=middle;spacingLeft=4;spacingRight=4;overflow=hidden;points=[[0,0.5],[1,0.5]];portConstraint=eastwest;rotatable=0;whiteSpace=wrap;html=1;" parent="xHrQQ2MKgyLzjJ9SZpF5-17" vertex="1">
          <mxGeometry y="60" width="140" height="30" as="geometry" />
        </mxCell>
        <mxCell id="xHrQQ2MKgyLzjJ9SZpF5-20" value="Data" style="text;strokeColor=#6c8ebf;fillColor=#dae8fc;align=left;verticalAlign=middle;spacingLeft=4;spacingRight=4;overflow=hidden;points=[[0,0.5],[1,0.5]];portConstraint=eastwest;rotatable=0;whiteSpace=wrap;html=1;" parent="xHrQQ2MKgyLzjJ9SZpF5-17" vertex="1">
          <mxGeometry y="90" width="140" height="30" as="geometry" />
        </mxCell>
        <mxCell id="xHrQQ2MKgyLzjJ9SZpF5-22" value="" style="endArrow=none;dashed=1;html=1;dashPattern=1 3;strokeWidth=2;rounded=0;" parent="1" edge="1">
          <mxGeometry width="50" height="50" relative="1" as="geometry">
            <mxPoint x="40" y="40" as="sourcePoint" />
            <mxPoint x="40" y="40" as="targetPoint" />
            <Array as="points">
              <mxPoint x="680" y="40" />
              <mxPoint x="680" y="220" />
              <mxPoint x="40" y="220" />
            </Array>
          </mxGeometry>
        </mxCell>
        <mxCell id="xHrQQ2MKgyLzjJ9SZpF5-23" value="Power Evaluation" style="text;html=1;align=center;verticalAlign=middle;whiteSpace=wrap;rounded=0;fontStyle=1" parent="1" vertex="1">
          <mxGeometry x="300" y="40" width="120" height="30" as="geometry" />
        </mxCell>
        <mxCell id="rJtXmpbxsKEuH6SqP7lU-43" style="edgeStyle=orthogonalEdgeStyle;rounded=0;orthogonalLoop=1;jettySize=auto;html=1;exitX=1;exitY=0.5;exitDx=0;exitDy=0;entryX=0.5;entryY=1;entryDx=0;entryDy=0;endArrow=none;endFill=0;" parent="1" source="rJtXmpbxsKEuH6SqP7lU-37" target="rJtXmpbxsKEuH6SqP7lU-41" edge="1">
          <mxGeometry relative="1" as="geometry" />
        </mxCell>
        <mxCell id="rJtXmpbxsKEuH6SqP7lU-37" value="ICM-20948&lt;div&gt;Accel/Gyro/Mag&lt;/div&gt;" style="rounded=0;whiteSpace=wrap;html=1;" parent="1" vertex="1">
          <mxGeometry x="900" y="120" width="120" height="40" as="geometry" />
        </mxCell>
        <mxCell id="rJtXmpbxsKEuH6SqP7lU-44" style="edgeStyle=orthogonalEdgeStyle;rounded=0;orthogonalLoop=1;jettySize=auto;html=1;exitX=1;exitY=0.5;exitDx=0;exitDy=0;entryX=0.5;entryY=1;entryDx=0;entryDy=0;endArrow=none;endFill=0;" parent="1" source="rJtXmpbxsKEuH6SqP7lU-38" target="rJtXmpbxsKEuH6SqP7lU-41" edge="1">
          <mxGeometry relative="1" as="geometry" />
        </mxCell>
        <mxCell id="rJtXmpbxsKEuH6SqP7lU-38" value="BMP388&lt;div&gt;Press/Temp&lt;/div&gt;" style="rounded=0;whiteSpace=wrap;html=1;" parent="1" vertex="1">
          <mxGeometry x="900" y="180" width="120" height="40" as="geometry" />
        </mxCell>
        <mxCell id="rJtXmpbxsKEuH6SqP7lU-45" style="edgeStyle=orthogonalEdgeStyle;rounded=0;orthogonalLoop=1;jettySize=auto;html=1;exitX=1;exitY=0.5;exitDx=0;exitDy=0;entryX=0.5;entryY=1;entryDx=0;entryDy=0;endArrow=none;endFill=0;" parent="1" source="rJtXmpbxsKEuH6SqP7lU-39" target="rJtXmpbxsKEuH6SqP7lU-41" edge="1">
          <mxGeometry relative="1" as="geometry">
            <mxPoint x="1090" y="160" as="targetPoint" />
          </mxGeometry>
        </mxCell>
        <mxCell id="rJtXmpbxsKEuH6SqP7lU-39" value="AHT20&lt;div&gt;Hum/Temp&lt;/div&gt;" style="rounded=0;whiteSpace=wrap;html=1;" parent="1" vertex="1">
          <mxGeometry x="900" y="240" width="120" height="40" as="geometry" />
        </mxCell>
        <mxCell id="rJtXmpbxsKEuH6SqP7lU-46" style="edgeStyle=orthogonalEdgeStyle;rounded=0;orthogonalLoop=1;jettySize=auto;html=1;exitX=1;exitY=0.5;exitDx=0;exitDy=0;entryX=0.5;entryY=1;entryDx=0;entryDy=0;endArrow=none;endFill=0;" parent="1" source="rJtXmpbxsKEuH6SqP7lU-40" target="rJtXmpbxsKEuH6SqP7lU-41" edge="1">
          <mxGeometry relative="1" as="geometry" />
        </mxCell>
        <mxCell id="rJtXmpbxsKEuH6SqP7lU-40" value="&lt;span style=&quot;text-align: left;&quot;&gt;MCP7940N&lt;/span&gt;&lt;div&gt;&lt;span style=&quot;text-align: left;&quot;&gt;Temp&lt;/span&gt;&lt;/div&gt;" style="rounded=0;whiteSpace=wrap;html=1;" parent="1" vertex="1">
          <mxGeometry x="900" y="300" width="120" height="40" as="geometry" />
        </mxCell>
        <mxCell id="rJtXmpbxsKEuH6SqP7lU-41" value="I2C" style="rounded=0;whiteSpace=wrap;html=1;" parent="1" vertex="1">
          <mxGeometry x="1040" y="80" width="40" height="20" as="geometry" />
        </mxCell>
        <mxCell id="rJtXmpbxsKEuH6SqP7lU-50" style="edgeStyle=orthogonalEdgeStyle;rounded=0;orthogonalLoop=1;jettySize=auto;html=1;exitX=0.5;exitY=1;exitDx=0;exitDy=0;entryX=0;entryY=0.75;entryDx=0;entryDy=0;endArrow=none;endFill=0;fillColor=#dae8fc;strokeColor=#6c8ebf;" parent="1" source="rJtXmpbxsKEuH6SqP7lU-47" target="rJtXmpbxsKEuH6SqP7lU-37" edge="1">
          <mxGeometry relative="1" as="geometry" />
        </mxCell>
        <mxCell id="rJtXmpbxsKEuH6SqP7lU-52" style="edgeStyle=orthogonalEdgeStyle;rounded=0;orthogonalLoop=1;jettySize=auto;html=1;exitX=0.5;exitY=1;exitDx=0;exitDy=0;entryX=0;entryY=0.5;entryDx=0;entryDy=0;endArrow=none;endFill=0;fillColor=#dae8fc;strokeColor=#6c8ebf;" parent="1" source="rJtXmpbxsKEuH6SqP7lU-47" target="rJtXmpbxsKEuH6SqP7lU-38" edge="1">
          <mxGeometry relative="1" as="geometry">
            <mxPoint x="880" y="320" as="targetPoint" />
          </mxGeometry>
        </mxCell>
        <mxCell id="rJtXmpbxsKEuH6SqP7lU-61" style="edgeStyle=orthogonalEdgeStyle;rounded=0;orthogonalLoop=1;jettySize=auto;html=1;exitX=0.5;exitY=1;exitDx=0;exitDy=0;entryX=0;entryY=0.25;entryDx=0;entryDy=0;endArrow=none;endFill=0;fillColor=#dae8fc;strokeColor=#6c8ebf;" parent="1" source="rJtXmpbxsKEuH6SqP7lU-47" target="rJtXmpbxsKEuH6SqP7lU-56" edge="1">
          <mxGeometry relative="1" as="geometry" />
        </mxCell>
        <mxCell id="rJtXmpbxsKEuH6SqP7lU-47" value="1V8" style="rounded=0;whiteSpace=wrap;html=1;" parent="1" vertex="1">
          <mxGeometry x="840" y="80" width="40" height="20" as="geometry" />
        </mxCell>
        <mxCell id="rJtXmpbxsKEuH6SqP7lU-51" style="edgeStyle=orthogonalEdgeStyle;rounded=0;orthogonalLoop=1;jettySize=auto;html=1;exitX=0.5;exitY=1;exitDx=0;exitDy=0;entryX=0;entryY=0.5;entryDx=0;entryDy=0;endArrow=none;endFill=0;fillColor=#ffe6cc;strokeColor=#d79b00;" parent="1" source="rJtXmpbxsKEuH6SqP7lU-48" target="rJtXmpbxsKEuH6SqP7lU-37" edge="1">
          <mxGeometry relative="1" as="geometry" />
        </mxCell>
        <mxCell id="rJtXmpbxsKEuH6SqP7lU-53" style="edgeStyle=orthogonalEdgeStyle;rounded=0;orthogonalLoop=1;jettySize=auto;html=1;exitX=0.5;exitY=1;exitDx=0;exitDy=0;entryX=0;entryY=0.5;entryDx=0;entryDy=0;endArrow=none;endFill=0;fillColor=#ffe6cc;strokeColor=#d79b00;" parent="1" source="rJtXmpbxsKEuH6SqP7lU-48" target="rJtXmpbxsKEuH6SqP7lU-39" edge="1">
          <mxGeometry relative="1" as="geometry" />
        </mxCell>
        <mxCell id="rJtXmpbxsKEuH6SqP7lU-55" style="edgeStyle=orthogonalEdgeStyle;rounded=0;orthogonalLoop=1;jettySize=auto;html=1;exitX=0.5;exitY=1;exitDx=0;exitDy=0;entryX=0;entryY=0.5;entryDx=0;entryDy=0;endArrow=none;endFill=0;fillColor=#ffe6cc;strokeColor=#d79b00;" parent="1" source="rJtXmpbxsKEuH6SqP7lU-48" target="rJtXmpbxsKEuH6SqP7lU-40" edge="1">
          <mxGeometry relative="1" as="geometry" />
        </mxCell>
        <mxCell id="rJtXmpbxsKEuH6SqP7lU-60" style="edgeStyle=orthogonalEdgeStyle;rounded=0;orthogonalLoop=1;jettySize=auto;html=1;exitX=0.5;exitY=1;exitDx=0;exitDy=0;entryX=0;entryY=0.5;entryDx=0;entryDy=0;endArrow=none;endFill=0;fillColor=#ffe6cc;strokeColor=#d79b00;" parent="1" source="rJtXmpbxsKEuH6SqP7lU-48" target="rJtXmpbxsKEuH6SqP7lU-56" edge="1">
          <mxGeometry relative="1" as="geometry" />
        </mxCell>
        <mxCell id="rJtXmpbxsKEuH6SqP7lU-48" value="3V3" style="rounded=0;whiteSpace=wrap;html=1;" parent="1" vertex="1">
          <mxGeometry x="780" y="80" width="40" height="20" as="geometry" />
        </mxCell>
        <mxCell id="rJtXmpbxsKEuH6SqP7lU-62" style="edgeStyle=orthogonalEdgeStyle;rounded=0;orthogonalLoop=1;jettySize=auto;html=1;exitX=1;exitY=0.5;exitDx=0;exitDy=0;entryX=0.5;entryY=1;entryDx=0;entryDy=0;endArrow=none;endFill=0;" parent="1" source="rJtXmpbxsKEuH6SqP7lU-56" target="rJtXmpbxsKEuH6SqP7lU-41" edge="1">
          <mxGeometry relative="1" as="geometry" />
        </mxCell>
        <mxCell id="rJtXmpbxsKEuH6SqP7lU-56" value="Expansion" style="rounded=0;whiteSpace=wrap;html=1;" parent="1" vertex="1">
          <mxGeometry x="900" y="360" width="120" height="20" as="geometry" />
        </mxCell>
        <mxCell id="rJtXmpbxsKEuH6SqP7lU-59" style="edgeStyle=orthogonalEdgeStyle;rounded=0;orthogonalLoop=1;jettySize=auto;html=1;exitX=0.5;exitY=1;exitDx=0;exitDy=0;entryX=0;entryY=0.75;entryDx=0;entryDy=0;fillColor=#f8cecc;strokeColor=#b85450;endArrow=none;endFill=0;" parent="1" source="rJtXmpbxsKEuH6SqP7lU-58" target="rJtXmpbxsKEuH6SqP7lU-56" edge="1">
          <mxGeometry relative="1" as="geometry" />
        </mxCell>
        <mxCell id="rJtXmpbxsKEuH6SqP7lU-58" value="5V" style="rounded=0;whiteSpace=wrap;html=1;" parent="1" vertex="1">
          <mxGeometry x="720" y="80" width="40" height="20" as="geometry" />
        </mxCell>
        <mxCell id="rJtXmpbxsKEuH6SqP7lU-63" value="" style="shape=curlyBracket;whiteSpace=wrap;html=1;rounded=1;flipH=1;labelPosition=right;verticalLabelPosition=middle;align=left;verticalAlign=middle;" parent="1" vertex="1">
          <mxGeometry x="1070" y="140" width="20" height="230" as="geometry" />
        </mxCell>
        <mxCell id="rJtXmpbxsKEuH6SqP7lU-64" value="Jumpers" style="text;html=1;align=center;verticalAlign=middle;whiteSpace=wrap;rounded=0;" parent="1" vertex="1">
          <mxGeometry x="1090" y="240" width="60" height="30" as="geometry" />
        </mxCell>
        <mxCell id="rJtXmpbxsKEuH6SqP7lU-66" value="" style="endArrow=none;dashed=1;html=1;dashPattern=1 3;strokeWidth=2;rounded=0;" parent="1" edge="1">
          <mxGeometry width="50" height="50" relative="1" as="geometry">
            <mxPoint x="700" y="40" as="sourcePoint" />
            <mxPoint x="700" y="40" as="targetPoint" />
            <Array as="points">
              <mxPoint x="700" y="400" />
              <mxPoint x="1160" y="400" />
              <mxPoint x="1160" y="40" />
            </Array>
          </mxGeometry>
        </mxCell>
        <mxCell id="rJtXmpbxsKEuH6SqP7lU-67" value="Sensor Evaluation" style="text;html=1;align=center;verticalAlign=middle;whiteSpace=wrap;rounded=0;fontStyle=1" parent="1" vertex="1">
          <mxGeometry x="880" y="40" width="120" height="30" as="geometry" />
        </mxCell>
        <mxCell id="chtHs6tJOqHKEe4emJxp-4" style="edgeStyle=orthogonalEdgeStyle;rounded=0;orthogonalLoop=1;jettySize=auto;html=1;exitX=0.5;exitY=0;exitDx=0;exitDy=0;entryX=0.5;entryY=1;entryDx=0;entryDy=0;endArrow=none;endFill=0;" edge="1" parent="1" source="rJtXmpbxsKEuH6SqP7lU-71" target="chtHs6tJOqHKEe4emJxp-3">
          <mxGeometry relative="1" as="geometry" />
        </mxCell>
        <mxCell id="rJtXmpbxsKEuH6SqP7lU-71" value="Audio Processor" style="rounded=0;whiteSpace=wrap;html=1;" parent="1" vertex="1">
          <mxGeometry x="880" y="520" width="120" height="40" as="geometry" />
        </mxCell>
        <mxCell id="chtHs6tJOqHKEe4emJxp-3" value="Digital Input/Output" style="rounded=0;whiteSpace=wrap;html=1;" vertex="1" parent="1">
          <mxGeometry x="880" y="460" width="120" height="40" as="geometry" />
        </mxCell>
        <mxCell id="chtHs6tJOqHKEe4emJxp-11" style="edgeStyle=orthogonalEdgeStyle;rounded=0;orthogonalLoop=1;jettySize=auto;html=1;exitX=0.5;exitY=0;exitDx=0;exitDy=0;entryX=0.5;entryY=1;entryDx=0;entryDy=0;endArrow=none;endFill=0;" edge="1" parent="1" source="chtHs6tJOqHKEe4emJxp-7" target="rJtXmpbxsKEuH6SqP7lU-71">
          <mxGeometry relative="1" as="geometry" />
        </mxCell>
        <mxCell id="chtHs6tJOqHKEe4emJxp-30" style="edgeStyle=orthogonalEdgeStyle;rounded=0;orthogonalLoop=1;jettySize=auto;html=1;exitX=0.5;exitY=1;exitDx=0;exitDy=0;entryX=0.5;entryY=0;entryDx=0;entryDy=0;endArrow=none;endFill=0;" edge="1" parent="1" source="chtHs6tJOqHKEe4emJxp-7" target="chtHs6tJOqHKEe4emJxp-29">
          <mxGeometry relative="1" as="geometry" />
        </mxCell>
        <mxCell id="chtHs6tJOqHKEe4emJxp-7" value="Audio Driver" style="rounded=0;whiteSpace=wrap;html=1;" vertex="1" parent="1">
          <mxGeometry x="880" y="640" width="120" height="40" as="geometry" />
        </mxCell>
        <mxCell id="chtHs6tJOqHKEe4emJxp-23" style="edgeStyle=orthogonalEdgeStyle;rounded=0;orthogonalLoop=1;jettySize=auto;html=1;exitX=0;exitY=0.5;exitDx=0;exitDy=0;entryX=1;entryY=0.25;entryDx=0;entryDy=0;endArrow=none;endFill=0;" edge="1" parent="1" source="chtHs6tJOqHKEe4emJxp-12" target="chtHs6tJOqHKEe4emJxp-7">
          <mxGeometry relative="1" as="geometry" />
        </mxCell>
        <mxCell id="chtHs6tJOqHKEe4emJxp-12" value="Speaker L&lt;div&gt;(Default)&lt;/div&gt;" style="rounded=0;whiteSpace=wrap;html=1;" vertex="1" parent="1">
          <mxGeometry x="1040" y="580" width="120" height="40" as="geometry" />
        </mxCell>
        <mxCell id="chtHs6tJOqHKEe4emJxp-25" style="edgeStyle=orthogonalEdgeStyle;rounded=0;orthogonalLoop=1;jettySize=auto;html=1;exitX=0;exitY=0.5;exitDx=0;exitDy=0;entryX=1;entryY=0.5;entryDx=0;entryDy=0;endArrow=none;endFill=0;" edge="1" parent="1" source="chtHs6tJOqHKEe4emJxp-15" target="chtHs6tJOqHKEe4emJxp-7">
          <mxGeometry relative="1" as="geometry" />
        </mxCell>
        <mxCell id="chtHs6tJOqHKEe4emJxp-15" value="Speaker R" style="rounded=0;whiteSpace=wrap;html=1;" vertex="1" parent="1">
          <mxGeometry x="1040" y="640" width="120" height="40" as="geometry" />
        </mxCell>
        <mxCell id="chtHs6tJOqHKEe4emJxp-26" style="edgeStyle=orthogonalEdgeStyle;rounded=0;orthogonalLoop=1;jettySize=auto;html=1;exitX=0;exitY=0.5;exitDx=0;exitDy=0;entryX=1;entryY=0.75;entryDx=0;entryDy=0;endArrow=none;endFill=0;" edge="1" parent="1" source="chtHs6tJOqHKEe4emJxp-16" target="chtHs6tJOqHKEe4emJxp-7">
          <mxGeometry relative="1" as="geometry" />
        </mxCell>
        <mxCell id="chtHs6tJOqHKEe4emJxp-16" value="External Speaker R" style="rounded=0;whiteSpace=wrap;html=1;" vertex="1" parent="1">
          <mxGeometry x="1040" y="700" width="120" height="40" as="geometry" />
        </mxCell>
        <mxCell id="chtHs6tJOqHKEe4emJxp-20" style="edgeStyle=orthogonalEdgeStyle;rounded=0;orthogonalLoop=1;jettySize=auto;html=1;exitX=1;exitY=0.5;exitDx=0;exitDy=0;entryX=0;entryY=0.25;entryDx=0;entryDy=0;endArrow=none;endFill=0;" edge="1" parent="1" source="chtHs6tJOqHKEe4emJxp-17" target="chtHs6tJOqHKEe4emJxp-7">
          <mxGeometry relative="1" as="geometry" />
        </mxCell>
        <mxCell id="chtHs6tJOqHKEe4emJxp-17" value="Mic L&lt;div&gt;(Default)&lt;/div&gt;" style="rounded=0;whiteSpace=wrap;html=1;" vertex="1" parent="1">
          <mxGeometry x="720" y="580" width="120" height="40" as="geometry" />
        </mxCell>
        <mxCell id="chtHs6tJOqHKEe4emJxp-21" style="edgeStyle=orthogonalEdgeStyle;rounded=0;orthogonalLoop=1;jettySize=auto;html=1;exitX=1;exitY=0.5;exitDx=0;exitDy=0;entryX=0;entryY=0.5;entryDx=0;entryDy=0;endArrow=none;endFill=0;" edge="1" parent="1" source="chtHs6tJOqHKEe4emJxp-18" target="chtHs6tJOqHKEe4emJxp-7">
          <mxGeometry relative="1" as="geometry" />
        </mxCell>
        <mxCell id="chtHs6tJOqHKEe4emJxp-18" value="Mic R" style="rounded=0;whiteSpace=wrap;html=1;" vertex="1" parent="1">
          <mxGeometry x="720" y="640" width="120" height="40" as="geometry" />
        </mxCell>
        <mxCell id="chtHs6tJOqHKEe4emJxp-22" style="edgeStyle=orthogonalEdgeStyle;rounded=0;orthogonalLoop=1;jettySize=auto;html=1;exitX=1;exitY=0.5;exitDx=0;exitDy=0;entryX=0;entryY=0.75;entryDx=0;entryDy=0;endArrow=none;endFill=0;" edge="1" parent="1" source="chtHs6tJOqHKEe4emJxp-19" target="chtHs6tJOqHKEe4emJxp-7">
          <mxGeometry relative="1" as="geometry" />
        </mxCell>
        <mxCell id="chtHs6tJOqHKEe4emJxp-19" value="External Mic Mono" style="rounded=0;whiteSpace=wrap;html=1;" vertex="1" parent="1">
          <mxGeometry x="720" y="700" width="120" height="40" as="geometry" />
        </mxCell>
        <mxCell id="chtHs6tJOqHKEe4emJxp-27" value="" style="endArrow=none;dashed=1;html=1;dashPattern=1 3;strokeWidth=2;rounded=0;" edge="1" parent="1">
          <mxGeometry width="50" height="50" relative="1" as="geometry">
            <mxPoint x="700" y="420" as="sourcePoint" />
            <mxPoint x="700" y="420" as="targetPoint" />
            <Array as="points">
              <mxPoint x="700" y="760" />
              <mxPoint x="1180" y="760" />
              <mxPoint x="1180" y="420" />
            </Array>
          </mxGeometry>
        </mxCell>
        <mxCell id="chtHs6tJOqHKEe4emJxp-28" value="Audio Evaluation" style="text;html=1;align=center;verticalAlign=middle;whiteSpace=wrap;rounded=0;fontStyle=1" vertex="1" parent="1">
          <mxGeometry x="880" y="420" width="120" height="30" as="geometry" />
        </mxCell>
        <mxCell id="chtHs6tJOqHKEe4emJxp-29" value="External Speaker L" style="rounded=0;whiteSpace=wrap;html=1;" vertex="1" parent="1">
          <mxGeometry x="880" y="700" width="120" height="40" as="geometry" />
        </mxCell>
        <mxCell id="chtHs6tJOqHKEe4emJxp-33" value="&lt;div style=&quot;&quot;&gt;&lt;span style=&quot;background-color: initial;&quot;&gt;&lt;b&gt;Audio Processor&lt;/b&gt;&lt;/span&gt;&lt;/div&gt;&lt;div&gt;- Effects&lt;/div&gt;&lt;div&gt;- Processing&lt;/div&gt;&lt;div&gt;- Controls&lt;/div&gt;&lt;div&gt;- Comms Link&lt;/div&gt;" style="text;html=1;align=left;verticalAlign=middle;whiteSpace=wrap;rounded=0;" vertex="1" parent="1">
          <mxGeometry x="1020" y="440" width="140" height="80" as="geometry" />
        </mxCell>
        <mxCell id="chtHs6tJOqHKEe4emJxp-35" value="&lt;div style=&quot;&quot;&gt;&lt;span style=&quot;background-color: initial;&quot;&gt;&lt;b&gt;Audio Driver&lt;/b&gt;&lt;/span&gt;&lt;/div&gt;&lt;div&gt;- Gain Control&lt;/div&gt;&lt;div&gt;- Safety Control&lt;/div&gt;&lt;div&gt;- Pan Control&lt;/div&gt;" style="text;html=1;align=left;verticalAlign=middle;whiteSpace=wrap;rounded=0;" vertex="1" parent="1">
          <mxGeometry x="720" y="440" width="140" height="80" as="geometry" />
        </mxCell>
        <mxCell id="chtHs6tJOqHKEe4emJxp-41" style="edgeStyle=orthogonalEdgeStyle;rounded=0;orthogonalLoop=1;jettySize=auto;html=1;exitX=0.5;exitY=0;exitDx=0;exitDy=0;entryX=0.5;entryY=1;entryDx=0;entryDy=0;endArrow=none;endFill=0;" edge="1" source="chtHs6tJOqHKEe4emJxp-42" target="chtHs6tJOqHKEe4emJxp-43" parent="1">
          <mxGeometry relative="1" as="geometry" />
        </mxCell>
        <mxCell id="chtHs6tJOqHKEe4emJxp-45" style="edgeStyle=orthogonalEdgeStyle;rounded=0;orthogonalLoop=1;jettySize=auto;html=1;exitX=1;exitY=0.25;exitDx=0;exitDy=0;entryX=0;entryY=0.5;entryDx=0;entryDy=0;endArrow=none;endFill=0;" edge="1" parent="1" source="chtHs6tJOqHKEe4emJxp-42" target="chtHs6tJOqHKEe4emJxp-44">
          <mxGeometry relative="1" as="geometry" />
        </mxCell>
        <mxCell id="chtHs6tJOqHKEe4emJxp-62" style="edgeStyle=orthogonalEdgeStyle;rounded=0;orthogonalLoop=1;jettySize=auto;html=1;entryX=0;entryY=0.5;entryDx=0;entryDy=0;endArrow=none;endFill=0;exitX=1;exitY=0.75;exitDx=0;exitDy=0;" edge="1" parent="1" source="chtHs6tJOqHKEe4emJxp-42" target="chtHs6tJOqHKEe4emJxp-60">
          <mxGeometry relative="1" as="geometry">
            <mxPoint x="380" y="330" as="sourcePoint" />
          </mxGeometry>
        </mxCell>
        <mxCell id="chtHs6tJOqHKEe4emJxp-64" style="edgeStyle=orthogonalEdgeStyle;rounded=0;orthogonalLoop=1;jettySize=auto;html=1;exitX=1;exitY=0.5;exitDx=0;exitDy=0;entryX=0;entryY=0.5;entryDx=0;entryDy=0;endArrow=none;endFill=0;" edge="1" parent="1" source="chtHs6tJOqHKEe4emJxp-42" target="chtHs6tJOqHKEe4emJxp-63">
          <mxGeometry relative="1" as="geometry" />
        </mxCell>
        <mxCell id="chtHs6tJOqHKEe4emJxp-68" style="edgeStyle=orthogonalEdgeStyle;rounded=0;orthogonalLoop=1;jettySize=auto;html=1;exitX=0.5;exitY=1;exitDx=0;exitDy=0;entryX=0.5;entryY=0;entryDx=0;entryDy=0;endArrow=none;endFill=0;" edge="1" parent="1" source="chtHs6tJOqHKEe4emJxp-42" target="chtHs6tJOqHKEe4emJxp-67">
          <mxGeometry relative="1" as="geometry" />
        </mxCell>
        <mxCell id="chtHs6tJOqHKEe4emJxp-71" style="edgeStyle=orthogonalEdgeStyle;rounded=0;orthogonalLoop=1;jettySize=auto;html=1;exitX=0;exitY=0.75;exitDx=0;exitDy=0;entryX=1;entryY=0.5;entryDx=0;entryDy=0;endArrow=none;endFill=0;" edge="1" parent="1" source="chtHs6tJOqHKEe4emJxp-42" target="chtHs6tJOqHKEe4emJxp-70">
          <mxGeometry relative="1" as="geometry" />
        </mxCell>
        <mxCell id="chtHs6tJOqHKEe4emJxp-42" value="Motor Processor" style="rounded=0;whiteSpace=wrap;html=1;" vertex="1" parent="1">
          <mxGeometry x="220" y="340" width="120" height="40" as="geometry" />
        </mxCell>
        <mxCell id="chtHs6tJOqHKEe4emJxp-43" value="Digital Input/Output" style="rounded=0;whiteSpace=wrap;html=1;" vertex="1" parent="1">
          <mxGeometry x="220" y="280" width="120" height="40" as="geometry" />
        </mxCell>
        <mxCell id="chtHs6tJOqHKEe4emJxp-50" style="edgeStyle=orthogonalEdgeStyle;rounded=0;orthogonalLoop=1;jettySize=auto;html=1;exitX=1;exitY=0.5;exitDx=0;exitDy=0;entryX=0;entryY=0.5;entryDx=0;entryDy=0;endArrow=none;endFill=0;" edge="1" parent="1" source="chtHs6tJOqHKEe4emJxp-44" target="chtHs6tJOqHKEe4emJxp-47">
          <mxGeometry relative="1" as="geometry" />
        </mxCell>
        <mxCell id="chtHs6tJOqHKEe4emJxp-44" value="Haptic Driver" style="rounded=0;whiteSpace=wrap;html=1;" vertex="1" parent="1">
          <mxGeometry x="380" y="280" width="120" height="40" as="geometry" />
        </mxCell>
        <mxCell id="chtHs6tJOqHKEe4emJxp-47" value="3x Haptic Motors" style="rounded=0;whiteSpace=wrap;html=1;" vertex="1" parent="1">
          <mxGeometry x="540" y="280" width="120" height="40" as="geometry" />
        </mxCell>
        <mxCell id="chtHs6tJOqHKEe4emJxp-54" style="edgeStyle=orthogonalEdgeStyle;rounded=0;orthogonalLoop=1;jettySize=auto;html=1;exitX=1;exitY=0.5;exitDx=0;exitDy=0;entryX=0;entryY=0.5;entryDx=0;entryDy=0;endArrow=none;endFill=0;" edge="1" parent="1" source="chtHs6tJOqHKEe4emJxp-52" target="chtHs6tJOqHKEe4emJxp-42">
          <mxGeometry relative="1" as="geometry" />
        </mxCell>
        <mxCell id="chtHs6tJOqHKEe4emJxp-52" value="8x Servos" style="rounded=0;whiteSpace=wrap;html=1;" vertex="1" parent="1">
          <mxGeometry x="60" y="340" width="120" height="40" as="geometry" />
        </mxCell>
        <mxCell id="chtHs6tJOqHKEe4emJxp-59" value="2x Fans" style="rounded=0;whiteSpace=wrap;html=1;" vertex="1" parent="1">
          <mxGeometry x="540" y="400" width="120" height="40" as="geometry" />
        </mxCell>
        <mxCell id="chtHs6tJOqHKEe4emJxp-61" style="edgeStyle=orthogonalEdgeStyle;rounded=0;orthogonalLoop=1;jettySize=auto;html=1;entryX=0;entryY=0.5;entryDx=0;entryDy=0;endArrow=none;endFill=0;exitX=1;exitY=0.5;exitDx=0;exitDy=0;" edge="1" parent="1" source="chtHs6tJOqHKEe4emJxp-60" target="chtHs6tJOqHKEe4emJxp-59">
          <mxGeometry relative="1" as="geometry">
            <mxPoint x="220" y="370" as="sourcePoint" />
          </mxGeometry>
        </mxCell>
        <mxCell id="chtHs6tJOqHKEe4emJxp-60" value="Mosfets" style="rounded=0;whiteSpace=wrap;html=1;" vertex="1" parent="1">
          <mxGeometry x="380" y="400" width="120" height="40" as="geometry" />
        </mxCell>
        <mxCell id="chtHs6tJOqHKEe4emJxp-66" style="edgeStyle=orthogonalEdgeStyle;rounded=0;orthogonalLoop=1;jettySize=auto;html=1;exitX=1;exitY=0.5;exitDx=0;exitDy=0;entryX=0;entryY=0.5;entryDx=0;entryDy=0;endArrow=none;endFill=0;" edge="1" parent="1" source="chtHs6tJOqHKEe4emJxp-63" target="chtHs6tJOqHKEe4emJxp-65">
          <mxGeometry relative="1" as="geometry" />
        </mxCell>
        <mxCell id="chtHs6tJOqHKEe4emJxp-63" value="Stepper Driver&lt;div&gt;(TMC Chips)&lt;/div&gt;" style="rounded=0;whiteSpace=wrap;html=1;" vertex="1" parent="1">
          <mxGeometry x="380" y="340" width="120" height="40" as="geometry" />
        </mxCell>
        <mxCell id="chtHs6tJOqHKEe4emJxp-65" value="2x Stepper Ports" style="rounded=0;whiteSpace=wrap;html=1;" vertex="1" parent="1">
          <mxGeometry x="540" y="340" width="120" height="40" as="geometry" />
        </mxCell>
        <mxCell id="chtHs6tJOqHKEe4emJxp-67" value="OLED Display" style="rounded=0;whiteSpace=wrap;html=1;" vertex="1" parent="1">
          <mxGeometry x="220" y="400" width="120" height="40" as="geometry" />
        </mxCell>
        <mxCell id="chtHs6tJOqHKEe4emJxp-70" value="2x Solenoid" style="rounded=0;whiteSpace=wrap;html=1;" vertex="1" parent="1">
          <mxGeometry x="60" y="400" width="120" height="40" as="geometry" />
        </mxCell>
        <mxCell id="chtHs6tJOqHKEe4emJxp-73" value="" style="endArrow=none;dashed=1;html=1;dashPattern=1 3;strokeWidth=2;rounded=0;" edge="1" parent="1">
          <mxGeometry width="50" height="50" relative="1" as="geometry">
            <mxPoint x="40" y="240" as="sourcePoint" />
            <mxPoint x="40" y="240" as="targetPoint" />
            <Array as="points">
              <mxPoint x="680" y="240" />
              <mxPoint x="680" y="460" />
              <mxPoint x="40" y="460" />
            </Array>
          </mxGeometry>
        </mxCell>
        <mxCell id="chtHs6tJOqHKEe4emJxp-74" value="Motor Evaluation" style="text;html=1;align=center;verticalAlign=middle;whiteSpace=wrap;rounded=0;fontStyle=1" vertex="1" parent="1">
          <mxGeometry x="300" y="240" width="120" height="30" as="geometry" />
        </mxCell>
        <mxCell id="chtHs6tJOqHKEe4emJxp-77" style="edgeStyle=orthogonalEdgeStyle;rounded=0;orthogonalLoop=1;jettySize=auto;html=1;exitX=1;exitY=0.5;exitDx=0;exitDy=0;entryX=0;entryY=0.5;entryDx=0;entryDy=0;endArrow=none;endFill=0;" edge="1" parent="1" source="chtHs6tJOqHKEe4emJxp-75" target="rJtXmpbxsKEuH6SqP7lU-71">
          <mxGeometry relative="1" as="geometry" />
        </mxCell>
        <mxCell id="chtHs6tJOqHKEe4emJxp-75" value="Storage" style="rounded=0;whiteSpace=wrap;html=1;" vertex="1" parent="1">
          <mxGeometry x="720" y="520" width="120" height="40" as="geometry" />
        </mxCell>
        <mxCell id="chtHs6tJOqHKEe4emJxp-90" style="edgeStyle=orthogonalEdgeStyle;rounded=0;orthogonalLoop=1;jettySize=auto;html=1;exitX=1;exitY=0.5;exitDx=0;exitDy=0;entryX=0;entryY=0.5;entryDx=0;entryDy=0;endArrow=none;endFill=0;" edge="1" parent="1" source="chtHs6tJOqHKEe4emJxp-79" target="chtHs6tJOqHKEe4emJxp-80">
          <mxGeometry relative="1" as="geometry" />
        </mxCell>
        <mxCell id="chtHs6tJOqHKEe4emJxp-92" style="edgeStyle=orthogonalEdgeStyle;rounded=0;orthogonalLoop=1;jettySize=auto;html=1;exitX=0.5;exitY=1;exitDx=0;exitDy=0;entryX=0.5;entryY=0;entryDx=0;entryDy=0;endArrow=none;endFill=0;" edge="1" parent="1" source="chtHs6tJOqHKEe4emJxp-79" target="chtHs6tJOqHKEe4emJxp-83">
          <mxGeometry relative="1" as="geometry" />
        </mxCell>
        <mxCell id="chtHs6tJOqHKEe4emJxp-93" style="edgeStyle=orthogonalEdgeStyle;rounded=0;orthogonalLoop=1;jettySize=auto;html=1;exitX=0.5;exitY=0;exitDx=0;exitDy=0;entryX=0.5;entryY=1;entryDx=0;entryDy=0;endArrow=none;endFill=0;" edge="1" parent="1" source="chtHs6tJOqHKEe4emJxp-79" target="chtHs6tJOqHKEe4emJxp-82">
          <mxGeometry relative="1" as="geometry" />
        </mxCell>
        <mxCell id="chtHs6tJOqHKEe4emJxp-100" style="edgeStyle=orthogonalEdgeStyle;rounded=0;orthogonalLoop=1;jettySize=auto;html=1;exitX=0;exitY=0.5;exitDx=0;exitDy=0;entryX=1;entryY=0.5;entryDx=0;entryDy=0;endArrow=none;endFill=0;" edge="1" parent="1" source="chtHs6tJOqHKEe4emJxp-79" target="chtHs6tJOqHKEe4emJxp-99">
          <mxGeometry relative="1" as="geometry" />
        </mxCell>
        <mxCell id="chtHs6tJOqHKEe4emJxp-79" value="Main Processor" style="rounded=0;whiteSpace=wrap;html=1;" vertex="1" parent="1">
          <mxGeometry x="220" y="560" width="120" height="40" as="geometry" />
        </mxCell>
        <mxCell id="chtHs6tJOqHKEe4emJxp-94" style="edgeStyle=orthogonalEdgeStyle;rounded=0;orthogonalLoop=1;jettySize=auto;html=1;exitX=1;exitY=0.5;exitDx=0;exitDy=0;endArrow=none;endFill=0;entryX=0;entryY=0.5;entryDx=0;entryDy=0;" edge="1" parent="1" source="chtHs6tJOqHKEe4emJxp-80" target="chtHs6tJOqHKEe4emJxp-86">
          <mxGeometry relative="1" as="geometry">
            <mxPoint x="530" y="560" as="targetPoint" />
          </mxGeometry>
        </mxCell>
        <mxCell id="chtHs6tJOqHKEe4emJxp-80" value="USB HUB" style="rounded=0;whiteSpace=wrap;html=1;" vertex="1" parent="1">
          <mxGeometry x="380" y="560" width="120" height="40" as="geometry" />
        </mxCell>
        <mxCell id="chtHs6tJOqHKEe4emJxp-89" style="edgeStyle=orthogonalEdgeStyle;rounded=0;orthogonalLoop=1;jettySize=auto;html=1;exitX=1;exitY=0.5;exitDx=0;exitDy=0;entryX=0;entryY=0.25;entryDx=0;entryDy=0;endArrow=none;endFill=0;" edge="1" parent="1" source="chtHs6tJOqHKEe4emJxp-82" target="chtHs6tJOqHKEe4emJxp-80">
          <mxGeometry relative="1" as="geometry" />
        </mxCell>
        <mxCell id="chtHs6tJOqHKEe4emJxp-82" value="Motor Processor" style="rounded=0;whiteSpace=wrap;html=1;" vertex="1" parent="1">
          <mxGeometry x="220" y="500" width="120" height="40" as="geometry" />
        </mxCell>
        <mxCell id="chtHs6tJOqHKEe4emJxp-91" style="edgeStyle=orthogonalEdgeStyle;rounded=0;orthogonalLoop=1;jettySize=auto;html=1;exitX=1;exitY=0.5;exitDx=0;exitDy=0;entryX=0;entryY=0.75;entryDx=0;entryDy=0;endArrow=none;endFill=0;" edge="1" parent="1" source="chtHs6tJOqHKEe4emJxp-83" target="chtHs6tJOqHKEe4emJxp-80">
          <mxGeometry relative="1" as="geometry" />
        </mxCell>
        <mxCell id="chtHs6tJOqHKEe4emJxp-83" value="Audio Processor" style="rounded=0;whiteSpace=wrap;html=1;" vertex="1" parent="1">
          <mxGeometry x="220" y="620" width="120" height="40" as="geometry" />
        </mxCell>
        <mxCell id="chtHs6tJOqHKEe4emJxp-86" value="USB Port" style="rounded=0;whiteSpace=wrap;html=1;" vertex="1" parent="1">
          <mxGeometry x="540" y="560" width="120" height="40" as="geometry" />
        </mxCell>
        <mxCell id="chtHs6tJOqHKEe4emJxp-96" style="edgeStyle=orthogonalEdgeStyle;rounded=0;orthogonalLoop=1;jettySize=auto;html=1;exitX=1;exitY=0.5;exitDx=0;exitDy=0;entryX=0;entryY=0.25;entryDx=0;entryDy=0;endArrow=none;endFill=0;" edge="1" parent="1" source="chtHs6tJOqHKEe4emJxp-88" target="chtHs6tJOqHKEe4emJxp-79">
          <mxGeometry relative="1" as="geometry" />
        </mxCell>
        <mxCell id="chtHs6tJOqHKEe4emJxp-88" value="Sensors" style="rounded=0;whiteSpace=wrap;html=1;" vertex="1" parent="1">
          <mxGeometry x="60" y="500" width="120" height="40" as="geometry" />
        </mxCell>
        <mxCell id="chtHs6tJOqHKEe4emJxp-98" style="edgeStyle=orthogonalEdgeStyle;rounded=0;orthogonalLoop=1;jettySize=auto;html=1;exitX=1;exitY=0.5;exitDx=0;exitDy=0;entryX=0;entryY=0.75;entryDx=0;entryDy=0;endArrow=none;endFill=0;" edge="1" parent="1" source="chtHs6tJOqHKEe4emJxp-97" target="chtHs6tJOqHKEe4emJxp-79">
          <mxGeometry relative="1" as="geometry" />
        </mxCell>
        <mxCell id="chtHs6tJOqHKEe4emJxp-97" value="Storage" style="rounded=0;whiteSpace=wrap;html=1;" vertex="1" parent="1">
          <mxGeometry x="60" y="620" width="120" height="40" as="geometry" />
        </mxCell>
        <mxCell id="chtHs6tJOqHKEe4emJxp-99" value="Thermal Processor" style="rounded=0;whiteSpace=wrap;html=1;" vertex="1" parent="1">
          <mxGeometry x="60" y="560" width="120" height="40" as="geometry" />
        </mxCell>
        <mxCell id="chtHs6tJOqHKEe4emJxp-101" value="" style="endArrow=none;dashed=1;html=1;dashPattern=1 3;strokeWidth=2;rounded=0;" edge="1" parent="1">
          <mxGeometry width="50" height="50" relative="1" as="geometry">
            <mxPoint x="40" y="480" as="sourcePoint" />
            <mxPoint x="40" y="480" as="targetPoint" />
            <Array as="points">
              <mxPoint x="680" y="480" />
              <mxPoint x="680" y="680" />
              <mxPoint x="40" y="680" />
            </Array>
          </mxGeometry>
        </mxCell>
        <mxCell id="chtHs6tJOqHKEe4emJxp-104" style="edgeStyle=orthogonalEdgeStyle;rounded=0;orthogonalLoop=1;jettySize=auto;html=1;exitX=0.5;exitY=1;exitDx=0;exitDy=0;entryX=0.5;entryY=0;entryDx=0;entryDy=0;endArrow=none;endFill=0;" edge="1" parent="1" source="chtHs6tJOqHKEe4emJxp-102" target="chtHs6tJOqHKEe4emJxp-103">
          <mxGeometry relative="1" as="geometry" />
        </mxCell>
        <mxCell id="chtHs6tJOqHKEe4emJxp-122" style="edgeStyle=orthogonalEdgeStyle;rounded=0;orthogonalLoop=1;jettySize=auto;html=1;exitX=1;exitY=0.5;exitDx=0;exitDy=0;entryX=0;entryY=0.5;entryDx=0;entryDy=0;endArrow=none;endFill=0;" edge="1" parent="1" source="chtHs6tJOqHKEe4emJxp-102" target="chtHs6tJOqHKEe4emJxp-121">
          <mxGeometry relative="1" as="geometry" />
        </mxCell>
        <mxCell id="chtHs6tJOqHKEe4emJxp-102" value="Thermal Processor" style="rounded=0;whiteSpace=wrap;html=1;" vertex="1" parent="1">
          <mxGeometry x="220" y="740" width="120" height="40" as="geometry" />
        </mxCell>
        <mxCell id="chtHs6tJOqHKEe4emJxp-103" value="Thermal Driver" style="rounded=0;whiteSpace=wrap;html=1;" vertex="1" parent="1">
          <mxGeometry x="220" y="800" width="120" height="40" as="geometry" />
        </mxCell>
        <mxCell id="chtHs6tJOqHKEe4emJxp-117" style="edgeStyle=orthogonalEdgeStyle;rounded=0;orthogonalLoop=1;jettySize=auto;html=1;exitX=0;exitY=0.5;exitDx=0;exitDy=0;entryX=1;entryY=0.75;entryDx=0;entryDy=0;endArrow=none;endFill=0;" edge="1" parent="1" source="chtHs6tJOqHKEe4emJxp-107" target="chtHs6tJOqHKEe4emJxp-103">
          <mxGeometry relative="1" as="geometry" />
        </mxCell>
        <mxCell id="chtHs6tJOqHKEe4emJxp-107" value="Vape Coil" style="rounded=0;whiteSpace=wrap;html=1;" vertex="1" parent="1">
          <mxGeometry x="380" y="860" width="120" height="40" as="geometry" />
        </mxCell>
        <mxCell id="chtHs6tJOqHKEe4emJxp-115" style="edgeStyle=orthogonalEdgeStyle;rounded=0;orthogonalLoop=1;jettySize=auto;html=1;exitX=1;exitY=0.5;exitDx=0;exitDy=0;entryX=0;entryY=0.75;entryDx=0;entryDy=0;endArrow=none;endFill=0;" edge="1" parent="1" source="chtHs6tJOqHKEe4emJxp-109" target="chtHs6tJOqHKEe4emJxp-103">
          <mxGeometry relative="1" as="geometry" />
        </mxCell>
        <mxCell id="chtHs6tJOqHKEe4emJxp-109" value="Peltier Effect Pad" style="rounded=0;whiteSpace=wrap;html=1;" vertex="1" parent="1">
          <mxGeometry x="60" y="860" width="120" height="40" as="geometry" />
        </mxCell>
        <mxCell id="chtHs6tJOqHKEe4emJxp-116" style="edgeStyle=orthogonalEdgeStyle;rounded=0;orthogonalLoop=1;jettySize=auto;html=1;exitX=0;exitY=0.5;exitDx=0;exitDy=0;entryX=1;entryY=0.5;entryDx=0;entryDy=0;endArrow=none;endFill=0;" edge="1" parent="1" source="chtHs6tJOqHKEe4emJxp-111" target="chtHs6tJOqHKEe4emJxp-103">
          <mxGeometry relative="1" as="geometry" />
        </mxCell>
        <mxCell id="chtHs6tJOqHKEe4emJxp-111" value="Vape: Pump" style="rounded=0;whiteSpace=wrap;html=1;" vertex="1" parent="1">
          <mxGeometry x="380" y="800" width="120" height="40" as="geometry" />
        </mxCell>
        <mxCell id="chtHs6tJOqHKEe4emJxp-114" style="edgeStyle=orthogonalEdgeStyle;rounded=0;orthogonalLoop=1;jettySize=auto;html=1;exitX=1;exitY=0.5;exitDx=0;exitDy=0;entryX=0;entryY=0.5;entryDx=0;entryDy=0;endArrow=none;endFill=0;" edge="1" parent="1" source="chtHs6tJOqHKEe4emJxp-113" target="chtHs6tJOqHKEe4emJxp-103">
          <mxGeometry relative="1" as="geometry" />
        </mxCell>
        <mxCell id="chtHs6tJOqHKEe4emJxp-113" value="Peltier: Fan" style="rounded=0;whiteSpace=wrap;html=1;" vertex="1" parent="1">
          <mxGeometry x="60" y="800" width="120" height="40" as="geometry" />
        </mxCell>
        <mxCell id="chtHs6tJOqHKEe4emJxp-120" style="edgeStyle=orthogonalEdgeStyle;rounded=0;orthogonalLoop=1;jettySize=auto;html=1;exitX=1;exitY=0.5;exitDx=0;exitDy=0;entryX=0;entryY=0.5;entryDx=0;entryDy=0;endArrow=none;endFill=0;" edge="1" parent="1" source="chtHs6tJOqHKEe4emJxp-118" target="chtHs6tJOqHKEe4emJxp-102">
          <mxGeometry relative="1" as="geometry" />
        </mxCell>
        <mxCell id="chtHs6tJOqHKEe4emJxp-118" value="Storage" style="rounded=0;whiteSpace=wrap;html=1;" vertex="1" parent="1">
          <mxGeometry x="60" y="740" width="120" height="40" as="geometry" />
        </mxCell>
        <mxCell id="chtHs6tJOqHKEe4emJxp-121" value="Digital Input/Output" style="rounded=0;whiteSpace=wrap;html=1;" vertex="1" parent="1">
          <mxGeometry x="380" y="740" width="120" height="40" as="geometry" />
        </mxCell>
        <mxCell id="chtHs6tJOqHKEe4emJxp-123" value="&lt;div style=&quot;&quot;&gt;&lt;b style=&quot;background-color: initial;&quot;&gt;Thermal Devices&lt;/b&gt;&lt;/div&gt;&lt;div style=&quot;&quot;&gt;- Smoke Machine&lt;/div&gt;&lt;div style=&quot;&quot;&gt;- Peltier Cooling&lt;/div&gt;" style="text;html=1;align=left;verticalAlign=middle;whiteSpace=wrap;rounded=0;" vertex="1" parent="1">
          <mxGeometry x="220" y="860" width="120" height="40" as="geometry" />
        </mxCell>
        <mxCell id="chtHs6tJOqHKEe4emJxp-124" value="" style="endArrow=none;dashed=1;html=1;dashPattern=1 3;strokeWidth=2;rounded=0;" edge="1" parent="1">
          <mxGeometry width="50" height="50" relative="1" as="geometry">
            <mxPoint x="40" y="700" as="sourcePoint" />
            <mxPoint x="40" y="700" as="targetPoint" />
            <Array as="points">
              <mxPoint x="520" y="700" />
              <mxPoint x="520" y="920" />
              <mxPoint x="40" y="920" />
            </Array>
          </mxGeometry>
        </mxCell>
        <mxCell id="chtHs6tJOqHKEe4emJxp-125" value="Thermal Evaluation" style="text;html=1;align=center;verticalAlign=middle;whiteSpace=wrap;rounded=0;fontStyle=1" vertex="1" parent="1">
          <mxGeometry x="220" y="700" width="120" height="30" as="geometry" />
        </mxCell>
        <mxCell id="chtHs6tJOqHKEe4emJxp-126" value="Main System" style="text;html=1;align=center;verticalAlign=middle;whiteSpace=wrap;rounded=0;fontStyle=1" vertex="1" parent="1">
          <mxGeometry x="380" y="500" width="120" height="30" as="geometry" />
        </mxCell>
      </root>
    </mxGraphModel>
  </diagram>
</mxfile>
